<svg id="visual" viewBox="0 0 900 360" width="900" height="360" xmlns="http://www.w3.org/2000/svg" xmlns:xlink="http://www.w3.org/1999/xlink" version="1.1"><rect x="0" y="0" width="900" height="360" fill="#000000"></rect><path d="M0 215L8.3 227.8C16.7 240.7 33.3 266.3 50 265C66.7 263.7 83.3 235.3 100 207.8C116.7 180.3 133.3 153.7 150 153.7C166.7 153.7 183.3 180.3 200 208C216.7 235.7 233.3 264.3 250 261.5C266.7 258.7 283.3 224.3 300 228.3C316.7 232.3 333.3 274.7 350 272.8C366.7 271 383.3 225 400 192C416.7 159 433.3 139 450 135.5C466.7 132 483.3 145 500 167.5C516.7 190 533.3 222 550 233.7C566.7 245.3 583.3 236.7 600 242.8C616.7 249 633.3 270 650 260.8C666.7 251.7 683.3 212.3 700 204.2C716.7 196 733.3 219 750 241.3C766.7 263.7 783.3 285.3 800 289.2C816.7 293 833.3 279 850 271.8C866.7 264.7 883.3 264.3 891.7 264.2L900 264L900 361L891.7 361C883.3 361 866.7 361 850 361C833.3 361 816.7 361 800 361C783.3 361 766.7 361 750 361C733.3 361 716.7 361 700 361C683.3 361 666.7 361 650 361C633.3 361 616.7 361 600 361C583.3 361 566.7 361 550 361C533.3 361 516.7 361 500 361C483.3 361 466.7 361 450 361C433.3 361 416.7 361 400 361C383.3 361 366.7 361 350 361C333.3 361 316.7 361 300 361C283.3 361 266.7 361 250 361C233.3 361 216.7 361 200 361C183.3 361 166.7 361 150 361C133.3 361 116.7 361 100 361C83.3 361 66.7 361 50 361C33.3 361 16.7 361 8.3 361L0 361Z" fill="#6f0426"></path><path d="M0 332L8.3 304.3C16.7 276.7 33.3 221.3 50 206.5C66.7 191.7 83.3 217.3 100 222.2C116.7 227 133.3 211 150 196.5C166.7 182 183.3 169 200 178C216.7 187 233.3 218 250 234.2C266.7 250.3 283.3 251.7 300 246.8C316.7 242 333.3 231 350 235.2C366.7 239.3 383.3 258.7 400 248C416.7 237.3 433.3 196.7 450 179.8C466.7 163 483.3 170 500 169.8C516.7 169.7 533.3 162.3 550 186.5C566.7 210.7 583.3 266.3 600 266.7C616.7 267 633.3 212 650 185.5C666.7 159 683.3 161 700 170.5C716.7 180 733.3 197 750 210.5C766.7 224 783.3 234 800 247.5C816.7 261 833.3 278 850 263.5C866.7 249 883.3 203 891.7 180L900 157L900 361L891.7 361C883.3 361 866.7 361 850 361C833.3 361 816.7 361 800 361C783.3 361 766.7 361 750 361C733.3 361 716.7 361 700 361C683.3 361 666.7 361 650 361C633.3 361 616.7 361 600 361C583.3 361 566.7 361 550 361C533.3 361 516.7 361 500 361C483.3 361 466.7 361 450 361C433.3 361 416.7 361 400 361C383.3 361 366.7 361 350 361C333.3 361 316.7 361 300 361C283.3 361 266.7 361 250 361C233.3 361 216.7 361 200 361C183.3 361 166.7 361 150 361C133.3 361 116.7 361 100 361C83.3 361 66.7 361 50 361C33.3 361 16.7 361 8.3 361L0 361Z" fill="#84003b"></path><path d="M0 280L8.3 280.8C16.7 281.7 33.3 283.3 50 286.8C66.7 290.3 83.3 295.7 100 283.2C116.7 270.7 133.3 240.3 150 224.8C166.7 209.3 183.3 208.7 200 214.3C216.7 220 233.3 232 250 252.2C266.7 272.3 283.3 300.7 300 311.5C316.7 322.3 333.3 315.7 350 296.2C366.7 276.7 383.3 244.3 400 228.2C416.7 212 433.3 212 450 222.5C466.7 233 483.3 254 500 265.2C516.7 276.3 533.3 277.7 550 281.5C566.7 285.3 583.3 291.7 600 291.5C616.7 291.3 633.3 284.7 650 268.7C666.7 252.7 683.3 227.3 700 217.5C716.7 207.7 733.3 213.3 750 221.5C766.7 229.7 783.3 240.3 800 246.2C816.7 252 833.3 253 850 245.5C866.7 238 883.3 222 891.7 214L900 206L900 361L891.7 361C883.3 361 866.7 361 850 361C833.3 361 816.7 361 800 361C783.3 361 766.7 361 750 361C733.3 361 716.7 361 700 361C683.3 361 666.7 361 650 361C633.3 361 616.7 361 600 361C583.3 361 566.7 361 550 361C533.3 361 516.7 361 500 361C483.3 361 466.7 361 450 361C433.3 361 416.7 361 400 361C383.3 361 366.7 361 350 361C333.3 361 316.7 361 300 361C283.3 361 266.7 361 250 361C233.3 361 216.7 361 200 361C183.3 361 166.7 361 150 361C133.3 361 116.7 361 100 361C83.3 361 66.7 361 50 361C33.3 361 16.7 361 8.3 361L0 361Z" fill="#970054"></path><path d="M0 250L8.3 258.8C16.7 267.7 33.3 285.3 50 288.5C66.7 291.7 83.3 280.3 100 279.2C116.7 278 133.3 287 150 282.5C166.7 278 183.3 260 200 259.7C216.7 259.3 233.3 276.7 250 279.5C266.7 282.3 283.3 270.7 300 270.8C316.7 271 333.3 283 350 294.7C366.7 306.3 383.3 317.7 400 321.7C416.7 325.7 433.3 322.3 450 319.5C466.7 316.7 483.3 314.3 500 301.8C516.7 289.3 533.3 266.7 550 267.7C566.7 268.7 583.3 293.3 600 306.7C616.7 320 633.3 322 650 321.8C666.7 321.7 683.3 319.3 700 319.2C716.7 319 733.3 321 750 310C766.7 299 783.3 275 800 276.7C816.7 278.3 833.3 305.7 850 309.5C866.7 313.3 883.3 293.7 891.7 283.8L900 274L900 361L891.7 361C883.3 361 866.7 361 850 361C833.3 361 816.7 361 800 361C783.3 361 766.7 361 750 361C733.3 361 716.7 361 700 361C683.3 361 666.7 361 650 361C633.3 361 616.7 361 600 361C583.3 361 566.7 361 550 361C533.3 361 516.7 361 500 361C483.3 361 466.7 361 450 361C433.3 361 416.7 361 400 361C383.3 361 366.7 361 350 361C333.3 361 316.7 361 300 361C283.3 361 266.7 361 250 361C233.3 361 216.7 361 200 361C183.3 361 166.7 361 150 361C133.3 361 116.7 361 100 361C83.3 361 66.7 361 50 361C33.3 361 16.7 361 8.3 361L0 361Z" fill="#a60072"></path><path d="M0 337L8.3 338.8C16.7 340.7 33.3 344.3 50 335C66.7 325.7 83.3 303.3 100 288.8C116.7 274.3 133.3 267.7 150 278.8C166.7 290 183.3 319 200 319.8C216.7 320.7 233.3 293.3 250 289C266.7 284.7 283.3 303.3 300 314.3C316.7 325.3 333.3 328.7 350 324.3C366.7 320 383.3 308 400 304.3C416.7 300.7 433.3 305.3 450 301.3C466.7 297.3 483.3 284.7 500 279.5C516.7 274.3 533.3 276.7 550 289C566.7 301.3 583.3 323.7 600 327C616.7 330.3 633.3 314.7 650 304.3C666.7 294 683.3 289 700 292.3C716.7 295.7 733.3 307.3 750 318C766.7 328.7 783.3 338.3 800 327.8C816.7 317.3 833.3 286.7 850 271.3C866.7 256 883.3 256 891.7 256L900 256L900 361L891.7 361C883.3 361 866.7 361 850 361C833.3 361 816.7 361 800 361C783.3 361 766.7 361 750 361C733.3 361 716.7 361 700 361C683.3 361 666.7 361 650 361C633.3 361 616.7 361 600 361C583.3 361 566.7 361 550 361C533.3 361 516.7 361 500 361C483.3 361 466.7 361 450 361C433.3 361 416.7 361 400 361C383.3 361 366.7 361 350 361C333.3 361 316.7 361 300 361C283.3 361 266.7 361 250 361C233.3 361 216.7 361 200 361C183.3 361 166.7 361 150 361C133.3 361 116.7 361 100 361C83.3 361 66.7 361 50 361C33.3 361 16.7 361 8.3 361L0 361Z" fill="#ae0096"></path><path d="M0 314L8.3 311.7C16.7 309.3 33.3 304.7 50 304.8C66.7 305 83.3 310 100 312.3C116.7 314.7 133.3 314.3 150 320.3C166.7 326.3 183.3 338.7 200 343.2C216.7 347.7 233.3 344.3 250 343.7C266.7 343 283.3 345 300 342.3C316.7 339.7 333.3 332.3 350 325.2C366.7 318 383.3 311 400 309C416.7 307 433.3 310 450 308C466.7 306 483.3 299 500 297.5C516.7 296 533.3 300 550 308.5C566.7 317 583.3 330 600 338.2C616.7 346.3 633.3 349.7 650 343.5C666.7 337.3 683.3 321.7 700 313C716.7 304.3 733.3 302.7 750 306.8C766.7 311 783.3 321 800 322.8C816.7 324.7 833.3 318.3 850 317.8C866.7 317.3 883.3 322.7 891.7 325.3L900 328L900 361L891.7 361C883.3 361 866.7 361 850 361C833.3 361 816.7 361 800 361C783.3 361 766.7 361 750 361C733.3 361 716.7 361 700 361C683.3 361 666.7 361 650 361C633.3 361 616.7 361 600 361C583.3 361 566.7 361 550 361C533.3 361 516.7 361 500 361C483.3 361 466.7 361 450 361C433.3 361 416.7 361 400 361C383.3 361 366.7 361 350 361C333.3 361 316.7 361 300 361C283.3 361 266.7 361 250 361C233.3 361 216.7 361 200 361C183.3 361 166.7 361 150 361C133.3 361 116.7 361 100 361C83.3 361 66.7 361 50 361C33.3 361 16.7 361 8.3 361L0 361Z" fill="#a907c2"></path></svg>